:version 1.10
:name ASF
:units
  mass 1
  length 1
  angle deg
:documentation
  ASF file generated by Kaydara
:root
  axis xyz
  order  tx ty tz rx ry rz
  position 0 0 0
  orientation 0 0 0
:bonedata
  begin
    id 1
    name RightUpLegDummy
    direction -0.65628 -0.754516 0.00165102
    length 4.76918
    axis 0 0 0 xyz
  end
  begin
    id 2
    name RightUpLeg
    direction -0.145584 -0.923362 0.355256
    length 17.9961
    axis -24.7611 -13.1006 1.78531 xyz
    dof rx ry rz
  end
  begin
    id 3
    name RightLeg
    direction 0.263379 0.172355 -0.949171
    length 13.3386
    axis 89.6202 -21.1929 12.3855 xyz
    dof rx ry rz
  end
  begin
    id 4
    name RightFoot
    direction 0.224283 -0.968777 -0.105675
    length 5.86697
    axis 56.995 -39.6905 17.3365 xyz
    dof rx ry rz
  end
  begin
    id 5
    name RightToes
    direction -0.0806345 -0.9037 0.420506
    length 4.75197
    axis 146.825 -39.7828 17.6019 xyz
    dof rx ry rz
  end
  begin
    id 6
    name SpineDummy
    direction -3.39852e-014 1 9.33296e-014
    length 8.13779
    axis 0 0 0 xyz
  end
  begin
    id 7
    name Spine
    direction -0.156609 0.733703 0.661176
    length 7.14978
    axis 41.2365 5.68757 17.0844 xyz
    dof rx ry rz
  end
  begin
    id 8
    name Spine1
    direction 0 0 0
    length 0
    axis 42.8809 47.8308 -3.36039 xyz
    dof rx ry rz
  end
  begin
    id 9
    name HEadDummy
    direction 0.546431 0.701947 0.456819
    length 3.55512
    axis 42.8809 47.8308 -3.36039 xyz
  end
  begin
    id 10
    name HEad
    direction 0.23444 0.828559 0.508457
    length 7.35827
    axis 51.1864 49.2662 27.4903 xyz
    dof rx ry rz
  end
  begin
    id 11
    name LeftShoulder1Dummy
    direction 0.431183 0.475873 -0.766568
    length 2.49352
    axis 42.8809 47.8308 -3.36039 xyz
  end
  begin
    id 12
    name LeftShoulder1
    direction 0.268187 -0.383402 -0.883786
    length 4.48604
    axis -119.517 0.106469 35.1736 xyz
    dof rx ry rz
  end
  begin
    id 13
    name LeftArm
    direction 0.380567 -0.703221 -0.600541
    length 10.1142
    axis -5.41825 36.2925 7.8293 xyz
    dof rx ry rz
  end
  begin
    id 14
    name LeftForeArm
    direction 0.541071 -0.732356 -0.413396
    length 9.39839
    axis 4.65387 33.7604 7.81644 xyz
    dof rx ry rz
  end
  begin
    id 15
    name LeftHand
    direction 0.847511 -0.389379 -0.360707
    length 3.66142
    axis 7.65593 21.1436 -24.6758 xyz
    dof rx ry rz
  end
  begin
    id 16
    name RightShoulderDummy
    direction -0.692546 0.541855 0.476208
    length 2.49352
    axis 42.8809 47.8308 -3.36039 xyz
  end
  begin
    id 17
    name RightShoulder
    direction -0.870808 -0.316653 0.376065
    length 4.48602
    axis 141.571 51.133 -100.254 xyz
    dof rx ry rz
  end
  begin
    id 18
    name RightArm
    direction 0.366897 -0.87275 0.322015
    length 10.1142
    axis 92.3258 71.2036 138.917 xyz
    dof rx ry rz
  end
  begin
    id 19
    name RightForeArm
    direction 0.702487 -0.694568 0.155197
    length 9.39835
    axis 153.863 41.5092 -176.604 xyz
    dof rx ry rz
  end
  begin
    id 20
    name RightHand
    direction 0.79502 -0.601276 0.0800636
    length 3.66142
    axis 154.247 4.59222 142.9 xyz
    dof rx ry rz
  end
  begin
    id 21
    name LeftUpLegDummy
    direction 0.65628 -0.754516 0.00165102
    length 4.76919
    axis 0 0 0 xyz
  end
  begin
    id 22
    name LeftUpLeg
    direction -0.1277 -0.689368 0.713067
    length 17.9961
    axis -48.3385 -17.8675 0.791927 xyz
    dof rx ry rz
  end
  begin
    id 23
    name LeftLeg
    direction 0.109849 -0.991246 -0.0732378
    length 13.3386
    axis -2.05791 -7.30784 1.72042 xyz
    dof rx ry rz
  end
  begin
    id 24
    name LeftFoot
    direction 0.0448355 -0.272614 0.961078
    length 5.86697
    axis -18.7733 -7.89606 10.2113 xyz
    dof rx ry rz
  end
  begin
    id 25
    name LeftToes
    direction -0.18506 0.293668 0.937823
    length 4.75197
    axis 71.2267 -7.89606 10.2113 xyz
    dof rx ry rz
  end
:hierarchy
  begin
    root RightUpLegDummy SpineDummy LeftUpLegDummy
    RightUpLegDummy RightUpLeg
    RightUpLeg RightLeg
    RightLeg RightFoot
    RightFoot RightToes
    SpineDummy Spine
    Spine Spine1
    Spine1 HEadDummy LeftShoulder1Dummy RightShoulderDummy
    HEadDummy HEad
    LeftShoulder1Dummy LeftShoulder1
    LeftShoulder1 LeftArm
    LeftArm LeftForeArm
    LeftForeArm LeftHand
    RightShoulderDummy RightShoulder
    RightShoulder RightArm
    RightArm RightForeArm
    RightForeArm RightHand
    LeftUpLegDummy LeftUpLeg
    LeftUpLeg LeftLeg
    LeftLeg LeftFoot
    LeftFoot LeftToes
  end

:SAMPLES-PER-SECOND 30
:FULLY-SPECIFIED
:DEGREES
22
root  -0.769999 36.8894 -59.8416 -2.73964 9.82564 2.20674
RightUpLeg  -6.36532 5.65073 -4.85398
RightLeg  -51.3426 -23.017 6.54187
RightFoot  24.569 2.66442 -13.4998
RightToes  -1.27222e-014 -6.36111e-015 6.36111e-015
Spine  -27.6505 -20.6962 -18.9554
Spine1  14.8031 -13.0265 41.3084
HEad  -10.7308 -13.8324 -16.4278
LeftShoulder1  6.36111e-015 -1.33558e-015 6.49777e-015
LeftArm  31.5128 -40.5267 -48.1009
LeftForeArm  -56.2298 -53.235 43.8703
LeftHand  -2.82913 -6.56326 -13.9008
RightShoulder  -4.77083e-015 -6.36111e-015 -3.18055e-015
RightArm  50.2262 -36.9541 -1.42659
RightForeArm  -14.9034 -13.0982 -6.89351
RightHand  1.38896 -0.0429609 -10.4441
LeftUpLeg  38.0602 29.0878 23.103
LeftLeg  -2.91326 -1.8681 -0.610857
LeftFoot  -11.1246 1.52475 -7.61786
LeftToes  9.54166e-015 4.2066e-011 -8.07781e-011
23
root  -0.719765 37.0134 -59.2468 -3.33695 9.32074 2.08438
RightUpLeg  -6.82497 6.4768 -5.21461
RightLeg  -50.5133 -22.1511 5.51407
RightFoot  24.2871 2.78351 -13.6105
RightToes  -1.27222e-014 -6.36111e-015 6.36111e-015
Spine  -28.0889 -21.6474 -19.6682
Spine1  13.8951 -13.7806 42.7443
HEad  -8.6673 -12.3271 -15.1724
LeftShoulder1  6.36111e-015 -1.33558e-015 6.49777e-015
LeftArm  28.198 -42.6621 -50.7064
LeftForeArm  -46.9687 -52.797 35.5473
LeftHand  -2.86208 -6.65011 -14.5256
RightShoulder  -4.77083e-015 -6.36111e-015 -3.18055e-015
RightArm  53.3244 -41.3432 -7.75393
RightForeArm  -13.7018 -9.26291 -8.0761
RightHand  1.38218 -0.00787111 -10.4635
LeftUpLeg  40.6158 28.7577 24.0783
LeftLeg  -4.09231 -1.92675 -0.721332
LeftFoot  -10.8586 1.5665 -7.74208
LeftToes  9.54166e-015 4.2066e-011 -8.07781e-011
24
root  -0.656118 37.3441 -58.541 -3.87665 8.27437 1.80392
RightUpLeg  -6.38494 7.45052 -5.38978
RightLeg  -53.2512 -20.8159 5.05865
RightFoot  24.9169 3.16577 -14.2729
RightToes  -1.27222e-014 -6.36111e-015 6.36111e-015
Spine  -28.9532 -22.9896 -20.0273
Spine1  11.9976 -14.947 44.6075
HEad  -5.25424 -9.20935 -14.9076
LeftShoulder1  6.36111e-015 -1.33558e-015 6.49777e-015
LeftArm  25.2939 -41.4499 -51.9528
LeftForeArm  -39.0518 -52.102 29.0957
LeftHand  -2.78855 -6.29777 -15.3443
RightShoulder  -4.77083e-015 -6.36111e-015 -3.18055e-015
RightArm  57.6363 -44.2783 -13.4695
RightForeArm  -14.723 -6.12636 -9.57429
RightHand  1.62221 -0.747816 -10.762
LeftUpLeg  43.8518 28.326 25.4357
LeftLeg  -6.55999 -2.04928 -0.960631
LeftFoot  -9.21707 1.87319 -8.67595
LeftToes  9.54166e-015 4.2066e-011 -8.07781e-011
25
root  -0.605081 37.8106 -57.7782 -4.16656 7.23539 1.59957
RightUpLeg  -5.29118 8.16773 -5.7361
RightLeg  -59.1788 -19.2567 5.0835
RightFoot  24.913 3.53225 -14.7864
RightToes  -1.27222e-014 -6.36111e-015 6.36111e-015
Spine  -30.0624 -24.6063 -20.1107
Spine1  9.37471 -16.2765 47.1559
HEad  -1.34596 -5.48117 -14.9699
LeftShoulder1  6.36111e-015 -1.33558e-015 6.49777e-015
LeftArm  23.2872 -38.7858 -52.4921
LeftForeArm  -32.1746 -51.2008 23.8153
LeftHand  -2.50602 -5.19851 -14.9611
RightShoulder  -4.77083e-015 -6.36111e-015 -3.18055e-015
RightArm  61.8545 -45.5253 -17.1296
RightForeArm  -16.1363 -3.21419 -11.2446
RightHand  1.6845 -0.926789 -10.8599
LeftUpLeg  47.2219 28.0199 27.2696
LeftLeg  -9.53842 -3.26309 -1.20952
LeftFoot  -6.32097 2.48175 -10.3087
LeftToes  9.54166e-015 4.2066e-011 -8.07781e-011
26
root  -0.583798 38.2548 -56.9773 -4.15605 6.30815 1.69906
RightUpLeg  -3.77104 9.01707 -6.387
RightLeg  -67.3577 -17.3146 4.99288
RightFoot  24.9574 3.59438 -14.8816
RightToes  -1.27222e-014 -6.36111e-015 6.36111e-015
Spine  -31.3565 -26.296 -19.9327
Spine1  6.53502 -17.5566 49.6579
HEad  2.48678 -2.02677 -14.7492
LeftShoulder1  6.36111e-015 -1.33558e-015 6.49777e-015
LeftArm  22.649 -36.1849 -53.0662
LeftForeArm  -26.1463 -49.5165 18.8594
LeftHand  -2.05249 -3.59534 -13.7687
RightShoulder  -4.77083e-015 -6.36111e-015 -3.18055e-015
RightArm  65.8262 -46.042 -20.174
RightForeArm  -16.8909 0.548104 -13.3125
RightHand  1.27212 -0.0122211 -9.63374
LeftUpLeg  50.3052 27.9536 29.1792
LeftLeg  -12.2591 -5.24213 -1.25892
LeftFoot  -2.91183 3.16017 -11.6551
LeftToes  9.54166e-015 4.2066e-011 -8.07781e-011
27
root  -0.577498 38.5771 -56.1642 -4.18574 5.45605 1.79432
RightUpLeg  -1.71157 10.1002 -6.96338
RightLeg  -76.9977 -15.3258 4.9049
RightFoot  25.8184 3.65643 -15.1199
RightToes  -1.27222e-014 -6.36111e-015 6.36111e-015
Spine  -32.7013 -27.627 -19.1018
Spine1  3.92462 -18.7466 51.7632
HEad  5.6391 1.13621 -14.4772
LeftShoulder1  6.36111e-015 -1.33558e-015 6.49777e-015
LeftArm  22.9296 -33.8703 -53.5467
LeftForeArm  -21.77 -47.5534 15.0791
LeftHand  -1.56772 -2.00545 -12.5732
RightShoulder  -4.77083e-015 -6.36111e-015 -3.18055e-015
RightArm  69.2063 -45.9379 -22.8005
RightForeArm  -17.6863 4.14131 -15.516
RightHand  0.639738 1.33046 -7.29474
LeftUpLeg  53.0272 27.5712 30.3515
LeftLeg  -14.6208 -6.58612 -1.20545
LeftFoot  0.0103106 3.69269 -12.3975
LeftToes  9.54166e-015 4.2066e-011 -8.07781e-011
28
root  -0.579621 38.7767 -55.3592 -4.53783 4.60541 1.70087
RightUpLeg  0.98888 11.207 -7.19762
RightLeg  -87.3869 -13.3949 5.02843
RightFoot  25.7921 4.23909 -15.9219
RightToes  -1.27222e-014 -6.36111e-015 6.36111e-015
Spine  -33.8973 -28.3651 -17.8753
Spine1  2.09349 -19.6367 54.1637
HEad  7.40442 4.09227 -14.619
LeftShoulder1  6.36111e-015 -1.33558e-015 6.49777e-015
LeftArm  23.2694 -31.8293 -53.5555
LeftForeArm  -19.1094 -46.3302 12.9607
LeftHand  -1.2211 -0.964797 -11.6409
RightShoulder  -4.77083e-015 -6.36111e-015 -3.18055e-015
RightArm  71.5275 -44.926 -24.7461
RightForeArm  -19.1957 6.46705 -17.465
RightHand  0.202546 2.15327 -5.15732
LeftUpLeg  55.8935 26.6894 30.7182
LeftLeg  -17.2668 -6.68844 -1.34316
LeftFoot  1.69241 4.20247 -13.4032
LeftToes  9.54166e-015 4.2066e-011 -8.07781e-011
29
root  -0.639148 38.8338 -54.5388 -4.8009 3.68539 1.76227
RightUpLeg  3.66638 12.7463 -7.13008
RightLeg  -97.0454 -11.5173 4.33499
RightFoot  24.4018 4.99649 -16.7752
RightToes  -1.27222e-014 -6.36111e-015 6.36111e-015
Spine  -35.2309 -28.8294 -17.0893
Spine1  1.35234 -20.0551 57.1236
HEad  7.86908 6.34519 -15.1148
LeftShoulder1  6.36111e-015 -1.33558e-015 6.49777e-015
LeftArm  23.6803 -30.5666 -53.4508
LeftForeArm  -17.5734 -45.4809 11.7148
LeftHand  -1.09116 -0.626943 -11.1542
RightShoulder  -4.77083e-015 -6.36111e-015 -3.18055e-015
RightArm  73.3508 -43.2857 -26.8533
RightForeArm  -21.887 7.3774 -19.1467
RightHand  0.070289 2.22628 -4.10993
LeftUpLeg  58.8479 25.7029 30.3953
LeftLeg  -20.4171 -5.80716 -2.19278
LeftFoot  2.05342 4.64215 -14.64
LeftToes  9.54166e-015 4.2066e-011 -8.07781e-011
30
root  -0.804879 38.7216 -53.7036 -4.3842 2.67586 1.92814
RightUpLeg  4.87748 13.1631 -6.56883
RightLeg  -102.858 -11.7477 0.61122
RightFoot  24.7378 4.79962 -16.5448
RightToes  -1.27222e-014 -6.36111e-015 6.36111e-015
Spine  -37.0427 -29.0562 -16.5157
Spine1  1.03437 -20.1499 59.8328
HEad  7.83673 7.68973 -15.7928
LeftShoulder1  6.36111e-015 -1.33558e-015 6.49777e-015
LeftArm  24.6471 -30.1333 -53.6595
LeftForeArm  -17.0563 -44.5386 10.9209
LeftHand  -1.14586 -0.788009 -11.2802
RightShoulder  -4.77083e-015 -6.36111e-015 -3.18055e-015
RightArm  74.8271 -41.5923 -29.1664
RightForeArm  -26.0722 6.0399 -19.8597
RightHand  0.100327 2.04751 -4.04131
LeftUpLeg  61.0551 24.9025 29.7168
LeftLeg  -23.3519 -4.53594 -3.56558
LeftFoot  1.59329 4.6376 -14.8259
LeftToes  9.54166e-015 4.2066e-011 -8.07781e-011
31
root  -1.07672 38.4721 -52.943 -3.68104 1.30831 1.58228
RightUpLeg  4.27488 14.274 -4.86054
RightLeg  -102.277 -12.9632 -3.16199
RightFoot  27.8678 3.39371 -15.1177
RightToes  -1.27222e-014 -6.36111e-015 6.36111e-015
Spine  -38.0858 -28.632 -15.5713
Spine1  0.224115 -20.0637 61.9369
HEad  7.29305 9.11298 -17.2279
LeftShoulder1  6.36111e-015 -1.33558e-015 6.49777e-015
LeftArm  25.4609 -29.2295 -53.4967
LeftForeArm  -17.3711 -44.7487 11.1841
LeftHand  -1.16888 -0.828386 -11.4426
RightShoulder  -4.77083e-015 -6.36111e-015 -3.18055e-015
RightArm  73.8799 -39.9005 -29.6064
RightForeArm  -30.8541 1.23037 -17.8106
RightHand  0.169537 2.02613 -4.61615
LeftUpLeg  62.2536 24.1865 29.7682
LeftLeg  -24.5907 -3.21434 -4.22211
LeftFoot  0.246457 4.44539 -14.8059
LeftToes  9.54166e-015 4.2066e-011 -8.07781e-011
32
root  -1.47759 38.1085 -52.3218 -3.80156 -0.9016 0.862302
RightUpLeg  3.07455 19.2081 -2.28725
RightLeg  -96.8995 -11.8657 -2.80912
RightFoot  30.3579 1.96269 -13.7179
RightToes  -1.27222e-014 -6.36111e-015 6.36111e-015
Spine  -36.2626 -28.0317 -15.5413
Spine1  -0.775301 -19.7485 64.1241
HEad  5.18358 11.7174 -20.1951
LeftShoulder1  6.36111e-015 -1.33558e-015 6.49777e-015
LeftArm  24.9185 -26.5366 -52.1706
LeftForeArm  -17.5747 -46.5941 12.3976
LeftHand  -0.852644 0.0869017 -10.7006
RightShoulder  -4.77083e-015 -6.36111e-015 -3.18055e-015
RightArm  68.3633 -37.7615 -26.3214
RightForeArm  -34.6127 -6.11124 -13.0685
RightHand  0.346514 1.99355 -6.11599
LeftUpLeg  62.9618 23.8196 31.6463
LeftLeg  -22.0985 -1.9243 -2.92667
LeftFoot  -2.47648 4.83757 -17.5668
LeftToes  9.54166e-015 4.2066e-011 -8.07781e-011
33
root  -2.02319 37.6707 -51.795 -4.91261 -3.5917 0.5357
RightUpLeg  1.60877 20.403 -0.339705
RightLeg  -89.0809 -11.6596 -3.66758
RightFoot  28.8735 1.79035 -13.2004
RightToes  -1.27222e-014 -6.36111e-015 6.36111e-015
Spine  -32.2781 -27.7819 -17.211
Spine1  -0.523551 -19.2329 66.5297
HEad  1.3442 14.9007 -24.1768
LeftShoulder1  6.36111e-015 -1.33558e-015 6.49777e-015
LeftArm  23.6935 -22.6165 -50.5017
LeftForeArm  -16.9476 -47.4861 12.6435
LeftHand  -0.201954 1.77426 -8.97723
RightShoulder  -4.77083e-015 -6.36111e-015 -3.18055e-015
RightArm  59.7849 -35.0962 -20.3782
RightForeArm  -36.5316 -11.9653 -9.08448
RightHand  0.669537 1.81629 -8.55395
LeftUpLeg  61.6484 22.3478 30.7656
LeftLeg  -14.9533 2.24354 -2.4689
LeftFoot  -4.66672 5.67945 -22.1892
LeftToes  9.54166e-015 4.2066e-011 -8.07781e-011
34
root  -2.61695 37.2686 -51.2776 -6.01865 -5.23452 0.477848
RightUpLeg  0.828852 20.5481 1.2962
RightLeg  -82.6658 -12.0707 -2.97974
RightFoot  24.8844 2.58045 -13.4466
RightToes  -1.27222e-014 -6.36111e-015 6.36111e-015
Spine  -29.1698 -27.1615 -17.9811
Spine1  1.3068 -18.9334 67.6618
HEad  -2.55963 16.9149 -27.2798
LeftShoulder1  6.36111e-015 -1.33558e-015 6.49777e-015
LeftArm  23.6007 -19.4926 -49.4466
LeftForeArm  -16.725 -45.2523 11.1913
LeftHand  0.193659 2.45622 -7.15946
RightShoulder  -4.77083e-015 -6.36111e-015 -3.18055e-015
RightArm  51.6457 -33.1352 -14.4058
RightForeArm  -37.1491 -11.8643 -9.1377
RightHand  0.865333 1.84436 -10.2931
LeftUpLeg  58.1352 20.8886 29.5669
LeftLeg  -4.30992 6.20245 -0.380075
LeftFoot  -2.18179 6.27226 -22.4787
LeftToes  9.54166e-015 4.2066e-011 -8.07781e-011
35
root  -3.1339 36.8549 -50.7507 -6.55251 -4.93643 -0.277739
RightUpLeg  0.524652 19.4461 2.79856
RightLeg  -77.6887 -12.6102 -2.11451
RightFoot  21.4241 3.23985 -13.6896
RightToes  -1.27222e-014 -6.36111e-015 6.36111e-015
Spine  -28.2193 -25.2208 -14.9886
Spine1  3.64135 -18.8978 66.3458
HEad  -5.23393 16.9123 -28.4082
LeftShoulder1  6.36111e-015 -1.33558e-015 6.49777e-015
LeftArm  25.4257 -18.6461 -48.6069
LeftForeArm  -19.6023 -42.5908 10.8252
LeftHand  -0.179005 1.14155 -6.63817
RightShoulder  -4.77083e-015 -6.36111e-015 -3.18055e-015
RightArm  45.1597 -32.4302 -8.86748
RightForeArm  -38.536 -5.52729 -13.8095
RightHand  0.630494 2.4233 -9.57642
LeftUpLeg  51.7684 18.4976 27.5293
LeftLeg  8.34068 9.02387 3.3795
LeftFoot  5.63092 5.52632 -15.7342
LeftToes  9.54166e-015 4.2066e-011 -8.07781e-011
